<svg width="79" height="64" viewBox="0 0 79 64" fill="none" xmlns="http://www.w3.org/2000/svg">
<rect x="1.5" y="1.5" width="63.4875" height="47.1961" stroke="#090909" stroke-width="3"/>
<rect x="30.3828" y="50.1962" width="6.79173" height="9.62092" fill="black"/>
<rect x="16.4453" y="59.8171" width="34.3161" height="4.18301" fill="black"/>
<rect x="61.0547" y="26.098" width="16.9454" height="36.902" stroke="#0F0F0F" stroke-width="2"/>
<rect x="3.21875" y="3.76471" width="60.0532" height="10.8758" fill="#2CA9A9"/>
<rect x="50.7617" y="17.5687" width="8.22157" height="19.6601" fill="#A9862C"/>
<rect x="63.9844" y="34.7189" width="4.28951" height="12.549" fill="#A9862C"/>
<rect x="69.3516" y="34.3008" width="6.25554" height="15.8954" fill="white"/>
<rect x="6.07422" y="17.1504" width="8.22157" height="19.6601" fill="#A9862C"/>
<rect x="3.21875" y="39.5296" width="56.8361" height="5.01961" fill="#2CA9A9"/>
<rect x="17.332" y="17.5687" width="30.3841" height="19.6601" fill="white"/>
<line x1="22.875" y1="8.20276" x2="43.0715" y2="8.20276" stroke="black" stroke-width="2"/>
<line x1="18.6289" y1="11.6199" x2="46.8682" y2="11.6199" stroke="black" stroke-width="2"/>
<line x1="69.8828" y1="36.4577" x2="75.066" y2="36.4577" stroke="black"/>
<line x1="69.8828" y1="39.2386" x2="75.066" y2="39.2386" stroke="black"/>
<line x1="69.8828" y1="41.7484" x2="75.066" y2="41.7484" stroke="black"/>
<line x1="69.8828" y1="44.2581" x2="75.066" y2="44.2581" stroke="black"/>
<line x1="69.8828" y1="46.7681" x2="75.066" y2="46.7681" stroke="black"/>
<line x1="69.5234" y1="49.6962" x2="74.7066" y2="49.6962" stroke="black"/>
<line x1="31.6367" y1="21.8793" x2="45.7564" y2="21.8793" stroke="black"/>
<line x1="31.6367" y1="23.9705" x2="45.7564" y2="23.9705" stroke="black"/>
<line x1="31.6367" y1="26.0621" x2="45.7564" y2="26.0621" stroke="black"/>
<line x1="31.6367" y1="28.1536" x2="45.7564" y2="28.1536" stroke="black"/>
<line x1="31.6367" y1="30.2452" x2="45.7564" y2="30.2452" stroke="black"/>
<line x1="19.8398" y1="33.8008" x2="46.1131" y2="33.8008" stroke="black"/>
<line x1="20.0195" y1="35.2649" x2="46.2928" y2="35.2649" stroke="black"/>
<rect x="19.4805" y="20.2877" width="9.83014" height="11.5033" fill="#2CA9A2"/>
<rect x="62.5586" y="27.3988" width="13.9409" height="4.39216" fill="#2CA9A9"/>
<rect x="63.2656" y="48.7321" width="12.3324" height="9.83007" fill="white"/>
<line x1="64.8828" y1="50.5327" x2="74.713" y2="50.5327" stroke="black"/>
<line x1="64.8828" y1="52.8334" x2="74.713" y2="52.8334" stroke="black"/>
<line x1="64.8828" y1="54.9249" x2="74.713" y2="54.9249" stroke="black"/>
<line x1="64.8828" y1="57.2256" x2="74.713" y2="57.2256" stroke="black"/>
</svg>
