<svg width="45" height="45" viewBox="0 0 45 45" fill="none" xmlns="http://www.w3.org/2000/svg">
<path d="M37.5742 0H6.95818C3.11528 0 0 3.148 0 7.03125V37.9688C0 41.852 3.11528 45 6.95818 45H37.5742C41.4171 45 44.5323 41.852 44.5323 37.9688V7.03125C44.5323 3.148 41.4171 0 37.5742 0Z" fill="#1877F2"/>
<path d="M33.399 22.5C33.399 16.3125 28.3891 11.25 22.2659 11.25C16.1427 11.25 11.1328 16.3125 11.1328 22.5C11.1328 28.125 15.1686 32.7656 20.4568 33.6094V25.7344H17.6735V22.5H20.4568V19.9687C20.4568 17.1562 22.1267 15.6094 24.6317 15.6094C25.8841 15.6094 27.1366 15.8906 27.1366 15.8906V18.7031H25.745C24.3533 18.7031 23.9359 19.5469 23.9359 20.3906V22.5H26.9975L26.4408 25.7344H23.7967V33.75C29.3632 32.9062 33.399 28.125 33.399 22.5Z" fill="white"/>
</svg>
