<svg width="45" height="45" viewBox="0 0 45 45" fill="none" xmlns="http://www.w3.org/2000/svg">
<path d="M37.6757 0H7.05974C3.21684 0 0.101562 3.148 0.101562 7.03125V37.9688C0.101562 41.852 3.21684 45 7.05974 45H37.6757C41.5186 45 44.6339 41.852 44.6339 37.9688V7.03125C44.6339 3.148 41.5186 0 37.6757 0Z" fill="url(#paint0_linear_311_72)"/>
<path d="M22.367 12.9375C25.4286 12.9375 25.8461 12.9375 27.0985 12.9375C28.2119 12.9375 28.7685 13.2188 29.186 13.3594C29.7426 13.6406 30.1601 13.7813 30.5776 14.2031C30.9951 14.625 31.2734 15.0469 31.4126 15.6094C31.5518 16.0313 31.6909 16.5938 31.8301 17.7188C31.8301 18.9844 31.8301 19.2656 31.8301 22.5C31.8301 25.7344 31.8301 26.0156 31.8301 27.2812C31.8301 28.4062 31.5518 28.9687 31.4126 29.3906C31.1343 29.9531 30.9951 30.375 30.5776 30.7969C30.1601 31.2187 29.7426 31.5 29.186 31.6406C28.7685 31.7812 28.2119 31.9219 27.0985 32.0625C25.8461 32.0625 25.5677 32.0625 22.367 32.0625C19.1662 32.0625 18.8879 32.0625 17.6354 32.0625C16.5221 32.0625 15.9655 31.7812 15.548 31.6406C14.9913 31.3594 14.5738 31.2187 14.1563 30.7969C13.7388 30.375 13.4605 29.9531 13.3214 29.3906C13.1822 28.9687 13.043 28.4062 12.9039 27.2812C12.9039 26.0156 12.9039 25.7344 12.9039 22.5C12.9039 19.2656 12.9039 18.9844 12.9039 17.7188C12.9039 16.5938 13.1822 16.0313 13.3214 15.6094C13.5997 15.0469 13.7388 14.625 14.1563 14.2031C14.5738 13.7813 14.9913 13.5 15.548 13.3594C15.9655 13.2188 16.5221 13.0781 17.6354 12.9375C18.8879 12.9375 19.3054 12.9375 22.367 12.9375ZM22.367 10.8281C19.1662 10.8281 18.8879 10.8281 17.6354 10.8281C16.3829 10.8281 15.548 11.1094 14.8522 11.3906C14.1563 11.6719 13.4605 12.0938 12.7647 12.7969C12.0689 13.5 11.7906 14.0625 11.3731 14.9063C11.0947 15.6094 10.9556 16.4531 10.8164 17.7188C10.8164 18.9844 10.8164 19.4062 10.8164 22.5C10.8164 25.7344 10.8164 26.0156 10.8164 27.2812C10.8164 28.5469 11.0947 29.3906 11.3731 30.0937C11.6514 30.7969 12.0689 31.5 12.7647 32.2031C13.4605 32.9062 14.0172 33.1875 14.8522 33.6094C15.548 33.8906 16.3829 34.0312 17.6354 34.1719C18.8879 34.1719 19.3054 34.1719 22.367 34.1719C25.4286 34.1719 25.8461 34.1719 27.0985 34.1719C28.351 34.1719 29.186 33.8906 29.8818 33.6094C30.5776 33.3281 31.2734 32.9062 31.9693 32.2031C32.6651 31.5 32.9434 30.9375 33.3609 30.0937C33.6392 29.3906 33.7784 28.5469 33.9176 27.2812C33.9176 26.0156 33.9176 25.5937 33.9176 22.5C33.9176 19.4062 33.9176 18.9844 33.9176 17.7188C33.9176 16.4531 33.6392 15.6094 33.3609 14.9063C33.0826 14.2031 32.6651 13.5 31.9693 12.7969C31.2734 12.0938 30.7168 11.8125 29.8818 11.3906C29.186 11.1094 28.351 10.9687 27.0985 10.8281C25.8461 10.8281 25.5677 10.8281 22.367 10.8281Z" fill="white"/>
<path d="M22.367 16.4531C19.0271 16.4531 16.3829 19.125 16.3829 22.5C16.3829 25.875 19.0271 28.5469 22.367 28.5469C25.7069 28.5469 28.351 25.875 28.351 22.5C28.351 19.125 25.7069 16.4531 22.367 16.4531ZM22.367 26.4375C20.2795 26.4375 18.4704 24.75 18.4704 22.5C18.4704 20.3906 20.1404 18.5625 22.367 18.5625C24.4544 18.5625 26.2636 20.25 26.2636 22.5C26.2636 24.6094 24.4544 26.4375 22.367 26.4375Z" fill="white"/>
<path d="M28.4902 17.7188C29.2588 17.7188 29.8818 17.0892 29.8818 16.3125C29.8818 15.5358 29.2588 14.9063 28.4902 14.9063C27.7216 14.9063 27.0985 15.5358 27.0985 16.3125C27.0985 17.0892 27.7216 17.7188 28.4902 17.7188Z" fill="white"/>
<defs>
<linearGradient id="paint0_linear_311_72" x1="40.1807" y1="-2.5" x2="-3.32216" y2="41.0456" gradientUnits="userSpaceOnUse">
<stop stop-color="#8655CB"/>
<stop offset="0.145833" stop-color="#9E47BB"/>
<stop offset="0.270833" stop-color="#B03DAF"/>
<stop offset="0.432292" stop-color="#D53190"/>
<stop offset="0.567708" stop-color="#E15267"/>
<stop offset="0.885417" stop-color="#FAC673"/>
</linearGradient>
</defs>
</svg>
