<svg width="45" height="45" viewBox="0 0 45 45" fill="none" xmlns="http://www.w3.org/2000/svg">
<path d="M37.6757 0H7.05974C3.21684 0 0.101562 3.148 0.101562 7.03125V37.9688C0.101562 41.852 3.21684 45 7.05974 45H37.6757C41.5186 45 44.6339 41.852 44.6339 37.9688V7.03125C44.6339 3.148 41.5186 0 37.6757 0Z" fill="#2867B2"/>
<path d="M16.2443 33.75H11.5127V18.7031H16.2443V33.75ZM13.8785 16.5938C12.3477 16.5938 11.2344 15.4687 11.2344 13.9219C11.2344 12.375 12.4868 11.25 13.8785 11.25C15.4093 11.25 16.5226 12.375 16.5226 13.9219C16.5226 15.4687 15.4093 16.5938 13.8785 16.5938ZM33.5005 33.75H28.769V25.5938C28.769 23.2031 27.7948 22.5 26.4032 22.5C25.0116 22.5 23.6199 23.625 23.6199 25.7344V33.75H18.8884V18.7031H23.3416V20.8125C23.7591 19.8281 25.429 18.2812 27.7948 18.2812C30.4389 18.2812 33.2222 19.8281 33.2222 24.4687V33.75H33.5005Z" fill="white"/>
</svg>
