<svg width="45" height="45" viewBox="0 0 45 45" fill="none" xmlns="http://www.w3.org/2000/svg">
<path d="M37.6757 0H7.05974C3.21684 0 0.101562 3.148 0.101562 7.03125V37.9688C0.101562 41.852 3.21684 45 7.05974 45H37.6757C41.5186 45 44.6339 41.852 44.6339 37.9688V7.03125C44.6339 3.148 41.5186 0 37.6757 0Z" fill="#FF0000"/>
<path d="M32.9439 17.0156C32.6656 16.0313 31.9698 15.3281 30.9956 15.0469C29.3257 14.625 22.2283 14.625 22.2283 14.625C22.2283 14.625 15.2701 14.625 13.461 15.0469C12.4869 15.3281 11.791 16.0313 11.5127 17.0156C11.2344 18.8438 11.2344 22.5 11.2344 22.5C11.2344 22.5 11.2344 26.1563 11.6519 27.9844C11.9302 28.9687 12.626 29.6719 13.6002 29.9531C15.2701 30.375 22.3675 30.375 22.3675 30.375C22.3675 30.375 29.3256 30.375 31.1347 29.9531C32.1089 29.6719 32.8047 28.9687 33.0831 27.9844C33.5006 26.1563 33.5005 22.5 33.5005 22.5C33.5005 22.5 33.5006 18.8438 32.9439 17.0156ZM20.1408 25.875V19.125L25.9857 22.5L20.1408 25.875Z" fill="white"/>
</svg>
