<svg width="774" height="524" viewBox="0 0 774 524" fill="none" xmlns="http://www.w3.org/2000/svg">
<g id="reeeee 1">
<g id="main">
<g id="stem">
<path id="Vector" d="M400.491 523C401.169 515.938 401.654 508.876 401.944 502.247V501.958C402.138 498.644 402.235 495.329 402.332 492.158C402.8 474.262 402.347 456.339 400.976 438.546C400.01 426.188 398.587 413.919 396.712 401.795C394.678 388.68 392.546 378.015 390.899 370.521M417.64 462.469C416.645 450.277 416.418 437.974 416.962 425.719C417.349 409.433 418.221 387.095 420.256 360C419.578 361.153 410.955 378.015 396.809 376.718C393.202 376.346 389.68 374.905 386.452 372.48C383.225 370.054 380.355 366.693 378.013 362.594C374.041 371.674 373.46 378.592 373.653 383.348C373.847 388.103 375.01 391.851 375.591 401.074C375.882 404.966 375.397 409.145 375.397 413.036C375.397 416.927 375.785 420.819 375.688 424.566C375.3 436.095 374.719 447.481 374.332 458.866C373.863 471.298 373.831 483.757 374.235 496.194C374.428 500.085 374.622 503.832 374.913 507.723C375.204 511.615 375.591 517.523 375.785 522.424H395.937V509.597H396.712V522.424H406.207C406.401 517.235 406.692 511.903 406.983 506.57L408.242 506.859C407.951 512.047 407.661 517.235 407.273 522.424H411.73L412.021 516.226H412.989L412.699 522.279H417.156L417.737 502.679C417.931 498.067 419.19 493.744 422 493.167C419.979 483.131 418.52 472.864 417.64 462.469ZM395.744 460.596H396.131V407.416H395.453V460.596H395.744ZM408.048 465.784L406.014 434.366H405.142L406.304 465.928L408.048 465.784ZM402.816 492.014H401.944V522.856H402.816V492.014ZM395.55 442.581V501.382H396.228V442.581H395.55ZM411.342 517.668C411.149 510.029 410.858 502.247 410.567 494.608H409.308L409.986 517.523L411.342 517.668ZM380.339 392.139C379.757 402.227 380.726 406.263 381.501 405.83C382.276 405.398 381.986 405.254 382.083 404.389C382.179 403.524 382.179 403.524 382.179 402.804C382.179 402.083 382.179 402.804 382.083 404.389C381.986 405.974 381.792 410.73 381.501 416.351C380.629 436.24 378.982 474.576 377.626 507.579C377.432 512.912 377.238 517.956 377.044 522.856L380.339 392.139ZM413.861 385.942C414.396 409.925 414.041 433.933 412.796 457.858C411.536 482.07 409.695 499.508 411.633 522.856L413.861 385.942ZM418.028 386.806C417.931 388.824 417.834 391.851 417.64 395.454C416.736 422.209 416.995 449.023 418.415 475.729C419.287 495.905 419.965 511.47 420.547 522.856L418.028 386.806ZM379.757 522.856C379.079 517.956 378.401 512.912 377.626 507.579L376.463 498.067C373.557 473.134 371.134 435.951 375.01 387.239L379.757 522.856ZM398.263 522.856C398.166 517.379 397.972 511.903 397.875 506.426C397.1 470.54 396.712 435.519 396.712 401.795C396.712 393.436 396.712 385.077 396.809 376.718L398.263 522.856ZM408.242 390.121C407.661 408.424 407.273 427.304 407.079 446.472C406.886 472.702 406.983 498.211 407.467 522.856L408.242 390.121ZM396.422 522.856C394.387 412.748 393.418 386.374 392.934 386.374C392.449 386.374 388.962 445.752 391.19 522.856H396.422ZM404.173 522.856C403.688 519.253 403.204 515.794 402.816 512.335C402.429 508.876 402.138 505.561 401.944 502.247C401.072 489.708 400.976 476.737 400.782 460.884C400.782 454.399 400.782 446.904 400.976 438.69C401.357 419.685 402.457 400.727 404.27 381.906L404.173 522.856ZM383.439 523C382.276 493.023 381.501 457.281 381.501 416.495V405.974C381.501 402.66 381.501 399.345 381.598 396.03L383.439 523Z" stroke="#64C9D6" stroke-width="2" stroke-miterlimit="10"/>
</g>
<g id="up">
<path id="Vector_2" d="M151.068 270.736C162.845 270.736 172.392 258.356 172.392 243.084C172.392 227.813 162.845 215.433 151.068 215.433C139.29 215.433 129.743 227.813 129.743 243.084C129.743 258.356 139.29 270.736 151.068 270.736Z" fill="#64C9D6"/>
<path id="Vector_3" d="M499.367 66.7207C503.82 66.7207 507.43 61.7934 507.43 55.7152C507.43 49.6371 503.82 44.7097 499.367 44.7097C494.914 44.7097 491.304 49.6371 491.304 55.7152C491.304 61.7934 494.914 66.7207 499.367 66.7207Z" stroke="#64C9D6" stroke-width="2" stroke-miterlimit="10"/>
<path id="Vector_4" d="M483.666 23.3865C488.119 23.3865 491.729 18.4592 491.729 12.381C491.729 6.30282 488.119 1.37549 483.666 1.37549C479.213 1.37549 475.603 6.30282 475.603 12.381C475.603 18.4592 479.213 23.3865 483.666 23.3865Z" stroke="#64C9D6" stroke-width="2" stroke-miterlimit="10"/>
<path id="Vector_5" d="M265.01 376.939C260.129 375.838 255.992 382.442 256.098 389.32C256.098 390.669 256.304 392.004 256.706 393.248C257.107 394.492 257.694 395.62 258.435 396.568C259.175 397.515 260.053 398.262 261.018 398.765C261.983 399.269 263.015 399.518 264.055 399.5C268.617 399.363 272.224 393.86 272.118 387.256C272.21 386.285 272.137 385.299 271.906 384.368C270.526 379.965 271.906 376.801 274.24 374.05L284.955 361.394L284 359.88C275.407 371.023 265.54 360.981 256.31 363.732L277.953 366.759C273.709 372.537 271.481 378.315 265.01 376.939Z" stroke="#64C9D6" stroke-width="2" stroke-miterlimit="10"/>
<path id="Vector_6" d="M396.14 62.7311C407.507 62.7311 416.722 51.583 416.722 37.8311C416.722 24.0793 407.507 12.9312 396.14 12.9312C384.773 12.9312 375.559 24.0793 375.559 37.8311C375.559 51.583 384.773 62.7311 396.14 62.7311Z" stroke="#64C9D6" stroke-width="2" stroke-miterlimit="10"/>
<path id="Vector_7" d="M342.776 52.4136C350.686 52.4136 357.098 45.8233 357.098 37.6937C357.098 29.5642 350.686 22.9739 342.776 22.9739C334.866 22.9739 328.453 29.5642 328.453 37.6937C328.453 45.8233 334.866 52.4136 342.776 52.4136Z" stroke="#64C9D6" stroke-width="2" stroke-miterlimit="10"/>
<path id="Vector_8" d="M223.732 368.001C221.24 367.503 218.72 367.273 216.199 367.313C215.669 367.313 214.608 371.303 215.032 372.679C215.457 374.054 218.109 377.494 218.745 377.081C219.382 376.668 222.565 373.366 224.474 371.44L223.732 368.001Z" stroke="#64C9D6" stroke-width="2" stroke-miterlimit="10"/>
<path id="Vector_9" d="M504.247 182.554C503.717 181.04 502.444 180.077 501.595 178.702C500.853 179.802 499.473 181.178 499.686 182.003C499.898 182.829 501.171 184.755 502.55 187.231C503.399 184.892 504.46 183.379 504.247 182.554Z" stroke="#64C9D6" stroke-width="2" stroke-miterlimit="10"/>
<path id="Vector_10" d="M222.042 378.039C224.21 378.039 225.968 375.637 225.968 372.674C225.968 369.711 224.21 367.309 222.042 367.309C219.874 367.309 218.117 369.711 218.117 372.674C218.117 375.637 219.874 378.039 222.042 378.039Z" stroke="#64C9D6" stroke-width="2" stroke-miterlimit="10"/>
<path id="Vector_11" d="M282.304 55.7154C284.941 55.7154 287.078 52.8206 287.078 49.2497C287.078 45.6787 284.941 42.7839 282.304 42.7839C279.667 42.7839 277.53 45.6787 277.53 49.2497C277.53 52.8206 279.667 55.7154 282.304 55.7154Z" stroke="#64C9D6" stroke-width="2" stroke-miterlimit="10"/>
<path id="Vector_12" d="M607.261 129.315C611.714 129.315 615.324 124.387 615.324 118.309C615.324 112.231 611.714 107.304 607.261 107.304C602.808 107.304 599.198 112.231 599.198 118.309C599.198 124.387 602.808 129.315 607.261 129.315Z" fill="#64C9D6"/>
<path id="Vector_13" d="M315.615 403.214C318.486 403.214 320.814 400.012 320.814 396.061C320.814 392.11 318.486 388.907 315.615 388.907C312.744 388.907 310.417 392.11 310.417 396.061C310.417 400.012 312.744 403.214 315.615 403.214Z" stroke="#64C9D6" stroke-width="2" stroke-miterlimit="10"/>
<path id="Vector_14" d="M262.04 398.812C266.024 398.812 269.254 394.439 269.254 389.044C269.254 383.65 266.024 379.277 262.04 379.277C258.055 379.277 254.825 383.65 254.825 389.044C254.825 394.439 258.055 398.812 262.04 398.812Z" stroke="#64C9D6" stroke-width="2" stroke-miterlimit="10"/>
<path id="Vector_15" d="M295.352 382.992C298.223 382.992 300.551 379.789 300.551 375.838C300.551 371.887 298.223 368.685 295.352 368.685C292.481 368.685 290.154 371.887 290.154 375.838C290.154 379.789 292.481 382.992 295.352 382.992Z" stroke="#64C9D6" stroke-width="2" stroke-miterlimit="10"/>
<path id="Vector_16" d="M220.345 379.277C222.513 379.277 224.27 376.875 224.27 373.912C224.27 370.949 222.513 368.547 220.345 368.547C218.177 368.547 216.419 370.949 216.419 373.912C216.419 376.875 218.177 379.277 220.345 379.277Z" stroke="#64C9D6" stroke-width="2" stroke-miterlimit="10"/>
<path id="Vector_17" d="M217.162 366.346C214.192 367.034 212.176 369.922 213.131 373.774C214.086 377.626 216.101 378.177 217.905 378.864C219.708 379.552 223.316 378.177 222.891 374.325C222.148 368.409 224.483 365.933 227.984 364.145C224.376 364.832 220.769 365.383 217.162 366.346Z" stroke="#64C9D6" stroke-width="2" stroke-miterlimit="10"/>
<path id="Vector_18" d="M225.332 101.388C229.785 101.388 233.395 96.4606 233.395 90.3825C233.395 84.3043 229.785 79.377 225.332 79.377C220.879 79.377 217.269 84.3043 217.269 90.3825C217.269 96.4606 220.879 101.388 225.332 101.388Z" stroke="#64C9D6" stroke-width="2" stroke-miterlimit="10"/>
<path id="Vector_19" d="M155.31 369.923C154.462 370.335 153.825 372.124 153.613 373.362C153.401 374.6 154.462 375.838 154.992 375.838C155.953 375.744 156.856 375.208 157.538 374.325C158.705 372.399 159.766 370.335 160.933 367.997C158.917 368.684 157.008 368.822 155.31 369.923Z" stroke="#64C9D6" stroke-width="2" stroke-miterlimit="10"/>
<path id="Vector_20" d="M148.84 267.296C137.382 268.397 128.895 253.539 129.001 242.396C129.319 226.438 140.883 212.819 154.251 213.094C156.861 213.123 159.439 213.845 161.826 215.217C164.212 216.588 166.357 218.579 168.126 221.067C169.896 223.556 171.254 226.488 172.115 229.683C172.977 232.878 173.324 236.269 173.135 239.645C172.499 254.915 162.95 267.296 148.84 267.296Z" stroke="#64C9D6" stroke-width="2" stroke-miterlimit="10"/>
<path id="Vector_21" d="M217.694 303.064C215.148 299.625 212.708 295.911 209.95 292.609C209.313 291.921 206.767 292.059 206.555 292.747C205.845 294.575 205.657 296.671 206.024 298.662C206.024 299.35 207.828 299.9 208.783 300.175L214.193 301.276C215.417 301.743 216.621 302.294 217.8 302.927L217.694 303.064Z" stroke="#64C9D6" stroke-width="2" stroke-miterlimit="10"/>
<path id="Vector_22" d="M207.191 255.328C207.403 254.915 204.645 251.613 204.114 252.026C202.391 253.337 200.878 255.065 199.658 257.116C199.552 257.391 201.356 259.73 203.053 262.481C205.069 259.317 206.448 257.529 207.191 255.328Z" stroke="#64C9D6" stroke-width="2" stroke-miterlimit="10"/>
<path id="Vector_23" d="M224.378 354.377C214.935 349.975 204.008 345.435 195.415 347.499L224.378 354.377Z" stroke="#64C9D6" stroke-width="2" stroke-miterlimit="10"/>
<path id="Vector_24" d="M144.172 274.312C144.113 272.535 143.589 270.837 142.687 269.497C142.369 269.084 140.141 269.772 139.716 270.598C139.423 271.386 139.253 272.241 139.216 273.115C139.18 273.989 139.278 274.863 139.504 275.688C140.515 278.047 141.764 280.222 143.217 282.154C143.69 279.575 144.01 276.954 144.172 274.312V274.312Z" stroke="#64C9D6" stroke-width="2" stroke-miterlimit="10"/>
<path id="Vector_25" d="M153.509 301.688L164.966 308.704L165.497 307.329L154.039 300.45L153.509 301.688Z" stroke="#64C9D6" stroke-width="2" stroke-miterlimit="10"/>
<path id="Vector_26" d="M590.819 374.738C584.984 369.235 578.406 363.595 571.298 357.954C564.19 352.314 557.612 348.049 551.353 344.06" stroke="#64C9D6" stroke-width="2" stroke-miterlimit="10"/>
<path id="Vector_27" d="M204.114 260.555C205.872 260.555 207.297 258.646 207.297 256.291C207.297 253.935 205.872 252.026 204.114 252.026C202.356 252.026 200.931 253.935 200.931 256.291C200.931 258.646 202.356 260.555 204.114 260.555Z" stroke="#64C9D6" stroke-width="2" stroke-miterlimit="10"/>
<path id="Vector_28" d="M556.339 134.267C558.507 134.267 560.264 131.865 560.264 128.902C560.264 125.939 558.507 123.537 556.339 123.537C554.171 123.537 552.413 125.939 552.413 128.902C552.413 131.865 554.171 134.267 556.339 134.267Z" stroke="#64C9D6" stroke-width="2" stroke-miterlimit="10"/>
<path id="Vector_29" d="M217.8 302.926L230.001 313.932C218.437 317.921 207.827 315.995 197.218 314.895V316.408H236.048L270.209 337.043L217.8 302.926Z" stroke="#64C9D6" stroke-width="2" stroke-miterlimit="10"/>
<path id="Vector_30" d="M411.524 171.823C411.417 170.585 409.083 168.659 408.129 168.935C404.415 170.31 405.582 174.025 406.431 177.601C409.19 177.051 412.054 176.501 411.524 171.823Z" stroke="#64C9D6" stroke-width="2" stroke-miterlimit="10"/>
<path id="Vector_31" d="M494.169 313.52C495.069 311.625 495.782 309.592 496.291 307.467C496.397 306.504 494.806 305.266 493.957 304.165C492.896 305.816 491.411 307.192 490.986 309.117C490.562 311.043 492.047 312.006 492.79 313.52H494.169Z" stroke="#64C9D6" stroke-width="2" stroke-miterlimit="10"/>
<path id="Vector_32" d="M503.505 182.416C503.505 183.792 505.202 184.892 506.051 186.13C507.198 185.012 508.2 183.666 509.022 182.141C509.128 181.591 507.642 179.802 506.475 178.014C505.096 179.94 503.505 181.178 503.505 182.416Z" stroke="#64C9D6" stroke-width="2" stroke-miterlimit="10"/>
<path id="Vector_33" d="M250.158 139.495L259.918 126.15V125.875C256.63 130.277 253.447 134.817 250.158 139.357V139.495Z" stroke="#64C9D6" stroke-width="2" stroke-miterlimit="10"/>
<path id="Vector_34" d="M422.663 234.004C421.39 233.729 419.905 230.978 419.692 229.189C419.48 227.401 421.708 225.2 422.769 225.337C423.83 225.475 425.527 227.539 428.074 229.74C425.527 231.941 423.936 234.279 422.663 234.004Z" stroke="#64C9D6" stroke-width="2" stroke-miterlimit="10"/>
<path id="Vector_35" d="M442.29 191.358C442.184 191.083 443.881 189.57 443.881 189.57C445.049 191.012 446.082 192.628 446.958 194.385C447.064 194.797 445.897 196.173 444.836 197.962C443.86 195.847 443.008 193.64 442.29 191.358V191.358Z" stroke="#64C9D6" stroke-width="2" stroke-miterlimit="10"/>
<path id="Vector_36" d="M396.246 113.907C388.395 115.833 388.608 117.071 393.594 129.865L396.246 113.907Z" stroke="#64C9D6" stroke-width="2" stroke-miterlimit="10"/>
<path id="Vector_37" d="M422.769 225.338C421.708 225.2 419.48 227.952 419.692 229.19C419.905 230.428 421.39 233.729 422.663 234.005C423.936 234.28 425.527 231.941 428.074 229.74C425.527 227.539 424.254 225.338 422.769 225.338Z" stroke="#64C9D6" stroke-width="2" stroke-miterlimit="10"/>
<path id="Vector_38" d="M446.958 194.385C446.082 192.628 445.049 191.012 443.881 189.57C443.881 189.57 442.184 191.083 442.29 191.358C443.008 193.64 443.86 195.847 444.836 197.962C445.897 196.173 447.064 194.797 446.958 194.385Z" stroke="#64C9D6" stroke-width="2" stroke-miterlimit="10"/>
<path id="Vector_39" d="M615.22 185.856C606.944 191.083 614.477 187.507 604.292 198.65C595.699 208.142 596.229 209.242 589.227 216.534C584.135 221.624 577.557 228.364 569.388 232.904C553.368 241.709 537.136 238.957 526.102 237.169C524.405 236.894 515.175 235.243 503.081 234.418C495.76 234.005 492.259 234.142 488.334 236.481C480.483 241.434 476.982 251.889 476.77 252.714C471.677 269.085 480.483 282.979 477.619 304.027C477.3 306.228 476.876 308.567 476.027 314.895C474.436 326.176 474.542 328.515 473.163 332.091C471.423 336.677 468.647 340.468 465.206 342.959" stroke="#64C9D6" stroke-width="2" stroke-miterlimit="10"/>
<path id="Vector_40" d="M491.623 330.991L521.222 335.531C547.745 339.383 552.307 339.933 558.036 340.208C571.114 340.72 584.198 339.475 597.078 336.494" stroke="#64C9D6" stroke-width="2" stroke-miterlimit="10"/>
<path id="Vector_41" d="M540.531 287.519C549.018 286.968 555.914 287.244 560.794 287.519C565.674 287.794 572.995 287.244 579.042 287.519C582.331 287.794 584.877 287.932 587.529 285.868C591.879 282.154 592.834 274.45 592.94 273.074C593.789 264.957 590.394 262.344 588.802 251.476C587.922 244.821 587.994 238.012 589.015 231.391C590.5 223.137 593.046 219.835 599.412 207.041C603.549 198.787 607.05 190.12 610.976 181.728L624.874 150.913" stroke="#64C9D6" stroke-width="2" stroke-miterlimit="10"/>
<path id="Vector_42" d="M630.603 323.837C620.113 322.948 609.746 320.408 599.73 316.27C578.512 307.604 572.464 297.286 553.58 295.222C546.896 294.535 534.908 294.397 534.908 293.847C534.908 293.297 535.544 293.709 536.075 293.572" stroke="#64C9D6" stroke-width="2" stroke-miterlimit="10"/>
<path id="Vector_43" d="M292.064 155.59C291.852 161.643 291.639 170.998 292.064 182.279C293.231 214.47 297.368 219.147 297.475 241.846C297.475 268.947 291.639 271.698 294.822 291.784C295.565 296.598 299.384 320.948 310.63 325.35C316.571 327.689 319.966 322.461 331.53 319.71C339.099 317.858 346.864 317.811 354.446 319.572" stroke="#64C9D6" stroke-width="2" stroke-miterlimit="10"/>
<path id="Vector_44" d="M445.367 59.8423C430.408 88.4566 415.024 101.801 403.248 108.542C391.472 115.283 379.059 118.034 368.875 134.129C363.986 142.187 360.511 151.529 358.69 161.506" stroke="#64C9D6" stroke-width="2" stroke-miterlimit="10"/>
<path id="Vector_45" d="M268.83 334.842C253.234 355.202 241.14 358.779 232.865 358.091C224.59 357.404 222.574 351.763 208.888 348.737C201.674 347.086 187.882 344.197 173.666 353.139C166.213 358.012 159.773 365.137 154.887 373.912" stroke="#64C9D6" stroke-width="2" stroke-miterlimit="10"/>
<path id="Vector_46" d="M490.562 68.509C482.992 83.2519 474.398 97.0663 464.888 109.78C446.852 133.717 436.985 138.256 425.421 162.056C419.798 173.612 420.647 175.538 412.903 192.459C406.276 206.884 398.717 220.552 390.305 233.317" stroke="#64C9D6" stroke-width="2" stroke-miterlimit="10"/>
<path id="Vector_47" d="M223.423 99.0493C229.258 116.796 233.714 131.24 236.578 140.733C245.49 170.448 247.4 180.765 254.72 193.834C260.661 204.389 268.118 213.358 276.681 220.248" stroke="#64C9D6" stroke-width="2" stroke-miterlimit="10"/>
<path id="Vector_48" d="M142.792 278.439C144.066 285.593 146.93 296.185 153.932 303.339C158.07 307.604 161.571 308.567 178.652 312.418C188.2 314.62 197.748 316.958 207.402 318.471C219.179 320.535 236.153 323.837 258.326 329.615" stroke="#64C9D6" stroke-width="2" stroke-miterlimit="10"/>
<path id="Vector_49" d="M529.498 107.991C526.845 110.743 517.085 121.473 516.873 137.156C516.767 147.886 521.116 155.865 526.739 166.458C528.437 169.485 530.983 173.887 541.168 187.094C547.852 195.76 553.58 202.776 557.824 207.866" stroke="#64C9D6" stroke-width="2" stroke-miterlimit="10"/>
<path id="Vector_50" d="M422.663 234.005C424.831 234.005 426.588 231.603 426.588 228.64C426.588 225.676 424.831 223.274 422.663 223.274C420.495 223.274 418.738 225.676 418.738 228.64C418.738 231.603 420.495 234.005 422.663 234.005Z" stroke="#64C9D6" stroke-width="2" stroke-miterlimit="10"/>
<path id="Vector_51" d="M302.143 343.097C318.799 347.637 326.226 352.314 337.79 356.028C350.206 359.972 363.011 361.457 375.77 360.43L343.2 364.145C341.404 363.311 339.559 362.667 337.683 362.219C336.743 361.946 335.783 361.807 334.819 361.806C325.695 361.669 316.677 363.044 310.206 373.087C308.845 375.4 307.738 377.946 306.917 380.653C305.856 384.23 305.644 387.119 309.039 387.944L310.1 388.219C310.915 388.306 311.707 388.623 312.419 389.148C313.13 389.672 313.745 390.392 314.22 391.257C314.695 392.121 315.018 393.11 315.168 394.154C315.317 395.197 315.289 396.271 315.086 397.299C315.004 398.128 314.787 398.925 314.449 399.638C313.983 400.981 313.154 402.058 312.119 402.666C311.084 403.273 309.913 403.371 308.826 402.939C305.219 402.114 303.84 398.675 304.052 393.997C304.241 383.868 307.213 374.16 312.434 366.621C307.63 367.124 302.849 367.951 298.111 369.097C297.05 369.373 296.095 372.124 295.777 373.912V374.187C295.334 376.765 294.254 379.084 292.701 380.791C291.995 381.471 291.18 381.935 290.317 382.15C289.453 382.364 288.564 382.323 287.714 382.029C286.028 381.477 284.58 380.081 283.685 378.148C282.79 376.214 282.523 373.9 282.94 371.711C284.001 366.484 287.608 364.833 292.064 365.521C297.53 366.393 303.062 366.301 308.508 365.245C314.768 363.87 320.709 360.981 327.605 358.229L329.514 357.404L325.483 355.478L300.763 345.848C298.636 344.769 296.363 344.255 294.08 344.335C292.256 344.408 290.469 345.016 288.852 346.112C287.236 347.208 285.831 348.764 284.744 350.663L289.093 343.234C282.41 340.896 276.362 338.419 270.209 337.044C268.406 336.631 266.284 339.382 264.374 340.758C262.919 342.031 261.303 342.963 259.6 343.509L266.814 336.356L264.692 335.118L244.959 324.525L245.171 324.112C256.948 328.927 268.618 334.292 280.5 338.419L281.773 338.832C286.441 339.52 293.655 340.758 302.143 343.097Z" stroke="#64C9D6" stroke-width="2" stroke-miterlimit="10"/>
<path id="Vector_52" d="M666.144 240.195C664.417 243.927 662.07 247.113 659.275 249.521C656.479 251.93 653.305 253.501 649.983 254.12C646.661 254.739 643.274 254.391 640.069 253.101C636.863 251.811 633.92 249.611 631.452 246.661C629.542 244.322 628.057 243.222 625.723 245.56C615.22 256.703 603.019 262.894 590.182 267.021L582.756 269.222C568.539 273.074 554.641 278.164 541.592 285.868C536.904 288.564 532.335 291.595 527.906 294.948C522.814 298.937 518.358 304.027 513.902 308.842L508.385 314.895L502.55 321.636L494.912 330.44L493.745 331.678C500.428 332.366 507.218 332.504 513.796 333.88C535.227 338.282 556.763 340.758 578.406 339.107C582.857 338.881 587.289 338.238 591.667 337.181C594.392 336.147 596.946 334.468 599.2 332.229C601.534 330.165 603.974 329.477 605.459 332.366C606.024 333.597 606.382 334.968 606.51 336.391C606.638 337.813 606.533 339.254 606.202 340.62C605.141 343.922 602.17 344.335 600.155 341.859C598.139 339.382 594.956 338.97 591.986 339.107C576.602 339.657 561.219 340.896 545.836 340.345C532.044 339.657 518.252 336.906 504.354 334.98C496.291 333.88 488.652 335.806 480.801 338.97C472.951 342.134 461.387 344.197 451.838 347.361C445.517 349.513 439.284 352.084 433.166 355.065L428.286 357.541C426.519 358.389 424.948 359.81 423.724 361.668C423.226 362.426 422.799 363.257 422.451 364.145L398.793 387.669L369.936 364.145C365.161 353.965 359.963 344.06 355.719 333.329C351.476 322.599 344.792 320.398 336.729 321.636C331 322.461 325.377 323.149 319.754 324.112H319.542C317.326 324.501 315.082 324.547 312.858 324.25C310.41 323.866 308.017 323.032 305.75 321.773C304.46 321.087 303.218 320.258 302.037 319.297C298.322 316.054 295.382 311.527 293.549 306.228C291.109 298.937 290.261 290.683 289.094 282.704C288.563 279.677 288.139 277.889 285.593 276.513C279.651 273.624 273.923 269.772 268.194 266.333L268.724 264.682C271.801 266.883 274.877 269.222 278.06 271.011C281.243 272.799 284.426 273.762 288.033 275.275C288.459 273.804 288.779 272.284 288.988 270.735C289.518 262.206 289.624 253.677 290.367 245.285C291.109 236.893 287.502 230.015 282.834 224.787C273.742 214.336 262.271 208.009 250.158 206.766H250.052C247.015 206.513 243.969 206.467 240.928 206.628C236.468 206.858 232 206.674 227.56 206.078C223.953 205.803 220.346 204.84 217.376 209.517C216.739 210.48 213.556 209.792 212.389 208.554C211.222 207.316 211.434 203.877 212.071 202.501C212.708 201.126 215.148 200.3 216.633 200.575C222.998 201.401 229.258 203.189 235.729 204.014C242.201 204.84 250.476 205.115 257.797 205.528L260.343 205.115C260.304 205.059 260.275 204.994 260.257 204.923C260.239 204.852 260.232 204.777 260.237 204.702C259.628 203.364 258.955 202.078 258.221 200.85C253.835 194.451 249.86 187.595 246.339 180.353C238.382 163.982 232.653 145.96 227.773 127.251C225.863 120.235 223.847 113.494 221.725 106.616C221.219 105.317 220.449 104.223 219.497 103.452L219.073 103.039C217.55 101.974 216.269 100.408 215.36 98.4991H215.254C214.797 97.3392 214.509 96.08 214.405 94.7848V94.7848C214.342 93.3414 214.486 91.8954 214.829 90.5201C215.243 88.7808 215.954 87.1849 216.909 85.8511C217.864 84.5173 219.039 83.48 220.346 82.8162V82.8162C221.732 82.1294 223.217 81.8476 224.696 81.9909C228.621 82.266 231.168 84.7422 232.016 89.8323C232.865 94.9223 231.061 100.012 226.606 103.039L224.272 104.69L238.17 151.876H239.124C239.31 150.437 239.558 149.014 239.867 147.611C241.565 138.715 243.368 129.773 245.278 120.785C246.001 117.055 246.887 113.38 247.93 109.78C248.332 108.437 249.082 107.318 250.052 106.616C250.37 106.341 251.855 107.441 252.068 108.129C252.138 109.396 251.876 110.656 251.325 111.706C244.959 123.124 242.413 135.643 241.989 149.95C241.246 173.887 253.553 187.231 263.95 202.639L265.329 201.263C263.632 186.956 261.828 172.649 260.131 158.479C259.977 156.842 260.16 155.18 260.661 153.664C261.015 153.252 261.448 152.97 261.914 152.849C262.381 152.728 262.864 152.772 263.313 152.976C264.166 153.913 264.7 155.247 264.799 156.691C265.329 166.458 266.072 176.226 265.966 185.993C265.541 201.951 271.482 212.406 281.667 219.835C284.532 221.898 287.184 224.925 290.685 228.089C291.958 219.835 290.791 212.681 289.73 205.665C288.911 201.351 287.847 197.121 286.547 193.009C284.125 184.373 284.2 174.89 286.76 166.321C286.585 168.744 286.514 171.178 286.547 173.612C287.078 180.215 286.866 187.369 288.563 193.422C291.291 203.696 292.724 214.472 292.807 225.338C292.835 227.755 293.426 230.105 294.504 232.079L295.035 232.904L297.369 235.38C299.915 238.269 302.355 241.296 304.795 244.322C307.235 247.349 309.569 250.65 311.903 253.952C323.043 269.91 332.697 287.519 342.564 304.853C345.11 309.117 347.444 313.519 349.884 317.784L350.521 318.885C356.144 329.202 361.554 339.52 367.177 349.7C367.438 350.176 367.791 350.555 368.201 350.797C368.611 351.038 369.063 351.135 369.511 351.076C368.556 347.499 367.814 343.785 366.859 340.208C366.551 339.038 366.197 337.89 365.798 336.769C364.207 331.541 362.509 326.313 360.812 321.086H360.706C356.78 308.842 352.749 296.736 349.035 284.355C346.277 275 341.715 267.296 336.835 260.005H336.729C335.986 258.767 335.137 257.666 334.289 256.428C331.743 252.576 329.09 249 326.332 245.285L314.556 229.052L309.463 221.898L310.418 220.66L322.088 236.756L343.094 265.508C335.88 243.359 321.77 227.126 312.752 206.353L319.86 218.322C325.165 227.264 330.788 236.068 335.986 245.285C345.534 261.931 350.733 281.328 356.78 300.313C361.554 315.17 366.965 329.615 372.588 343.922C374.71 349.287 378.211 353.689 381.818 359.742C382.136 352.176 382.242 345.435 381.287 338.97C380.898 336.058 380.295 333.202 379.484 330.44C376.301 319.985 373.437 309.53 369.936 299.35C369.914 299.057 369.842 298.775 369.723 298.524L367.283 291.646C364.843 285.318 362.191 278.99 359.432 272.937C356.556 266.947 355.392 259.839 356.144 252.851C357.098 245.285 354.764 240.608 349.99 237.306C349.365 236.802 348.762 236.251 348.187 235.655L348.823 234.417L355.507 240.883L358.159 243.497C359.114 239.507 357.311 237.306 355.295 235.518L352.961 233.454C346.489 227.676 340.018 221.898 333.334 216.808C324.523 210.041 317.185 200.478 312.009 189.019C311.903 189.019 311.903 188.882 311.797 188.744C311.022 187.21 310.415 185.543 309.994 183.792C309.039 179.527 309.782 175.95 312.54 171.686C315.298 167.421 317.526 165.77 319.966 162.606C322.406 159.442 327.923 152.839 331.636 147.749C333.016 145.96 333.228 144.31 332.379 142.934C331.857 142.094 331.156 141.473 330.363 141.146C327.817 139.632 325.589 137.706 322.619 135.505L325.271 134.267C325.118 133.882 324.941 133.513 324.74 133.166C314.556 122.574 309.675 107.028 303.098 93.1339C297.793 81.7157 291.852 70.8478 285.911 59.9798C285.168 58.6042 283.259 58.1914 281.667 57.7787L280.606 57.366C277.636 56.1279 276.044 53.1014 276.469 49.387C276.707 47.9041 277.177 46.4998 277.848 45.26H277.954C278.701 44.0376 279.681 43.0899 280.798 42.5107C281.915 41.9315 283.129 41.7411 284.32 41.9583C285.099 42.1272 285.841 42.5111 286.496 43.0842C287.151 43.6573 287.704 44.4062 288.116 45.2801C288.528 46.1541 288.791 47.1327 288.887 48.1498C288.982 49.1669 288.908 50.1987 288.669 51.1754C287.714 55.1649 288.775 57.7787 290.367 60.6677C291.958 63.5566 294.08 67.6837 295.884 71.2605L301.825 82.8162C301.825 70.2975 301.719 59.4295 301.825 48.424C302.02 46.8383 302.414 45.3048 302.992 43.8843C303.098 43.7467 304.795 44.1594 304.901 44.5721C305.007 44.9848 304.795 48.0113 304.795 49.6622C304.689 60.5301 302.673 72.2234 304.795 82.266C307.554 95.4726 313.07 107.854 318.587 119.685C321.558 125.875 327.075 130.278 331.636 135.092C331.979 135.551 332.392 135.91 332.849 136.147C333.306 136.384 333.797 136.493 334.289 136.468C335.562 136.331 336.517 134.68 336.517 132.204C336.517 129.727 336.623 123.124 336.623 118.722C336.623 111.843 336.411 104.965 336.198 98.224C335.986 91.4831 335.456 87.3561 335.031 81.9909C334.607 76.6257 334.183 72.361 334.077 67.5461C334.106 67.0785 334.177 66.6168 334.289 66.1704C335.219 63.9499 336.667 62.1681 338.426 61.0804C339.487 60.3925 342.564 63.1439 343.2 65.0699C343.492 65.8168 343.644 66.6418 343.646 67.4787C343.647 68.3157 343.497 69.1416 343.209 69.8902C342.92 70.6388 342.5 71.2895 341.983 71.7902C341.466 72.2909 340.865 72.6277 340.23 72.7737C337.047 73.7367 336.623 76.0754 336.835 79.5146C337.153 85.0174 337.471 90.3826 337.896 96.298C338.108 99.5997 338.32 103.039 338.532 106.616L339.169 105.928C346.171 98.6367 352.43 92.9964 357.841 85.9804C365.692 76.0754 365.48 75.6627 358.372 64.9323C356.568 62.1809 354.764 59.7047 353.067 56.9533C351.369 54.2019 349.035 51.4505 346.171 50.7627C344.975 50.4684 343.744 50.5153 342.564 50.9003H342.14C336.304 52.4135 331.318 47.1859 329.939 40.3075C328.56 33.429 331.53 26.0003 336.304 22.5611C341.079 19.1219 347.338 19.2594 351.051 23.2489L352.006 24.3495C355.825 29.7146 356.356 37.0058 352.749 43.4716C351.582 45.6727 351.157 47.1859 351.688 48.8367C352.073 49.9209 352.613 50.9011 353.279 51.7257C356.886 56.6782 360.281 61.9058 363.464 67.1334C366.647 72.361 367.708 73.1864 371.103 69.3345C371.421 69.0594 372.057 69.1969 372.906 69.0594C369.617 75.25 369.829 75.1124 373.118 81.8533C376.407 88.5942 379.696 97.5362 382.985 105.24C384.046 107.441 385.955 111.293 386.804 111.018C390.093 109.917 394.018 108.817 394.337 102.901C394.655 96.9859 394.761 94.3721 394.761 90.1074V89.1444C394.655 82.6787 394.231 76.2129 394.443 69.7472C394.655 63.2815 393.382 63.0063 389.669 62.1809C379.802 60.1174 373.755 52.0008 372.8 40.3075C371.421 25.1749 381.393 10.8677 394.655 8.80419C405.688 7.01579 414.812 16.5081 416.192 30.9528C416.404 33.2833 416.404 35.6383 416.192 37.9688C415.582 42.7711 414.033 47.2906 411.692 51.0958C409.352 54.901 406.299 57.8649 402.824 59.7047H402.718C398.156 62.1809 396.777 65.4826 396.883 71.398C397.095 81.4406 396.989 91.4831 397.095 101.526C397.095 102.076 397.413 102.489 397.732 103.452C398.73 103.161 399.693 102.698 400.596 102.076C415.116 91.4207 428.167 77.7056 439.213 61.4931C439.956 60.3925 440.274 58.329 441.123 57.6412C441.972 56.9533 444.624 55.5776 446.109 55.9903C447.595 56.403 448.231 59.8423 447.807 61.0804C447.383 62.3185 444.836 65.7577 443.988 65.345C439.744 63.5566 438.153 67.4085 435.925 70.435C435.268 71.5865 434.521 72.6469 433.697 73.5992C424.255 86.5306 413.009 96.5732 401.233 105.378C400.13 106.195 399.099 107.163 398.156 108.267C396.364 110.672 395.211 113.756 394.867 117.071C394.125 124.087 392.745 130.965 392.321 138.257C395.291 133.304 397.626 127.526 401.02 123.262C412.478 109.23 423.512 94.2345 436.031 82.1284C450.353 68.5091 462.766 53.1014 472.739 34.2544C474.118 31.6406 475.497 29.0268 476.77 26.2755C478.043 23.5241 478.149 21.8733 476.982 19.397H476.876C476.876 19.2594 476.876 19.1219 476.77 19.1219C476.24 18.1548 475.865 17.0607 475.664 15.9035C475.464 14.7462 475.443 13.5488 475.603 12.381V12.381C476.114 9.94267 477.1 7.71596 478.467 5.91523C479.719 4.25301 481.296 3.06408 483.029 2.47601C485.191 1.69792 487.498 1.99221 489.501 3.30143C492.578 5.77767 494.169 9.35446 493.639 14.1694C493.108 18.9843 489.713 23.6616 486 23.7992H485.363C484.263 23.6704 483.153 23.7633 482.075 24.0743C479.528 25.0373 477.937 27.5136 476.452 30.9528C471.616 41.5382 465.77 51.2908 459.053 59.9798C452.112 69.0369 444.627 77.3631 436.667 84.8798C422.557 98.4991 408.765 113.219 398.156 132.066C393.659 139.859 391.407 149.447 391.79 159.167V160.268C392.109 171.961 392.003 183.517 392.215 195.21C392.215 196.723 393.17 198.099 393.488 199.2C392.957 206.903 392.321 214.745 391.79 222.586L393.064 223.137L394.549 220.798H394.655C394.759 220.493 394.902 220.214 395.079 219.972C400.278 209.93 405.582 199.887 410.781 189.707H410.887L418.526 173.887C433.06 143.071 453.96 119.96 473.375 95.0599C479.528 87.0809 485.045 78.0014 490.562 69.3345C491.198 68.234 491.092 65.6202 490.668 63.9693C490.334 62.61 490.219 61.1764 490.328 59.7569C490.437 58.3373 490.77 56.9619 491.305 55.7152C491.94 54.3368 492.767 53.1239 493.745 52.1384C495.433 50.4464 497.524 49.5749 499.657 49.6754C501.789 49.776 503.826 50.8421 505.415 52.6887C506.189 53.6738 506.76 54.8956 507.076 56.2418C507.391 57.588 507.44 59.0153 507.218 60.3925C506.582 64.9323 504.46 68.9218 501.489 69.6097C500.929 69.7474 500.353 69.7474 499.792 69.6097C498.696 69.4462 497.588 69.4925 496.503 69.7472C492.365 70.5726 490.35 74.9748 487.379 78.8268C471.89 99.3245 456.188 119.547 440.593 140.045C439.367 141.426 438.481 143.244 438.046 145.273L439.956 144.31L469.131 127.526C477.513 122.711 486.637 119.547 491.729 108.129C492.056 107.692 492.455 107.354 492.895 107.14C493.335 106.925 493.807 106.84 494.275 106.891C494.642 107.149 494.952 107.525 495.175 107.982C495.398 108.44 495.526 108.964 495.548 109.505C495.245 110.649 494.645 111.621 493.851 112.256C492.79 113.081 491.517 113.494 490.35 114.32C485.682 118.309 481.12 122.436 476.24 126.013C473.481 128.214 470.829 130.553 467.222 130.965C463.615 131.378 460.22 134.129 456.825 135.918C442.184 143.347 429.877 154.49 421.284 172.099C416.404 182.003 411.099 191.496 406.537 202.089C408.341 200.988 410.038 199.475 411.842 198.649C422.557 193.422 433.272 188.469 443.882 183.104C448.443 180.765 453.324 178.152 457.143 174.162C462.766 168.247 467.646 161.093 472.739 154.352C478.986 145.749 486.9 139.478 495.654 136.193C497.034 135.78 498.307 134.542 499.686 134.129C500.675 133.969 501.678 134.016 502.656 134.267C501.914 135.092 501.383 136.468 500.428 136.881C494.169 140.595 487.379 143.209 481.544 147.886C475.709 152.564 472.208 158.479 467.858 164.257C463.509 170.035 461.068 174.437 457.249 180.215L479.847 173.474L478.361 171.273L478.892 169.347C479.316 167.284 479.847 165.358 480.271 163.294L486 168.109C488.971 164.532 494.593 162.194 493.32 153.114C493.108 152.151 494.063 150.638 494.806 149.95C495.199 149.793 495.619 149.787 496.014 149.933C496.41 150.08 496.764 150.373 497.034 150.775C497.24 151.333 497.348 151.945 497.348 152.564C497.348 153.183 497.24 153.794 497.034 154.352C493.745 159.717 490.668 165.358 486.849 170.035C484.727 172.649 484.409 174.3 485.682 177.326C490.031 186.956 494.381 196.723 498.519 206.491C501.066 212.385 503.299 218.498 505.203 224.787C506.37 228.364 507.749 229.19 510.295 227.951C522.496 222.311 534.908 216.808 547.109 210.893C551.353 208.967 551.459 207.591 548.17 203.327C541.168 194.385 533.529 186.268 527.376 176.363C521.222 166.458 516.13 155.04 511.038 144.034C510.083 142.108 510.401 138.257 511.356 136.055C512.422 133.546 513.591 131.112 514.857 128.764C516.13 126.288 517.403 123.949 518.57 121.473C519.737 118.997 520.162 116.246 521.116 113.632L521.753 112.118C522.814 110.055 524.617 108.542 526.103 106.616L526.315 107.028C527.482 108.542 529.285 110.33 529.073 111.431C528.861 112.531 527.057 116.246 525.572 116.796C519.843 118.309 519.525 125.463 516.554 129.865L517.297 131.103C519.631 129.315 522.071 127.251 524.511 125.6C525.738 124.716 527.166 124.424 528.543 124.775C529.073 124.912 529.922 127.801 529.498 128.489C529.147 129.255 528.67 129.911 528.102 130.41C527.534 130.909 526.887 131.24 526.209 131.378C515.918 131.791 515.281 142.659 518.04 150.775C520.798 158.892 524.405 163.707 528.012 170.723C529.604 168.522 530.665 167.284 531.619 165.77L548.276 139.357C549.761 137.018 551.353 134.955 551.989 132.341C552.425 130.85 552.535 129.231 552.307 127.664C552.201 126.288 554.535 123.399 555.914 123.124C557.081 122.986 559.522 125.463 559.522 126.838C559.498 128.087 559.279 129.316 558.877 130.451C558.476 131.586 557.901 132.603 557.188 133.442C554.747 136.468 551.459 138.394 549.231 141.696C543.29 150.087 537.879 159.167 532.15 167.834C530.134 170.86 529.285 173.474 531.726 176.776L532.044 177.326C532.555 177.852 533.018 178.452 533.423 179.114L534.166 180.077C538.091 185.305 541.91 190.67 545.73 196.035C546.897 197.549 548.382 198.649 549.549 200.025C550.641 201.42 551.811 202.707 553.05 203.877C555.808 206.628 557.081 205.528 561.856 200.575C570.131 191.908 572.889 179.39 575.223 166.596C577.557 153.802 579.361 140.32 587.848 130.965C588.627 129.851 589.52 128.88 590.5 128.076C592.645 126.938 594.562 125.183 596.106 122.942C597.649 120.702 598.78 118.036 599.412 115.145C599.843 113.527 600.57 112.069 601.531 110.895C602.492 109.721 603.658 108.866 604.929 108.404C606.167 107.839 607.48 107.597 608.79 107.692C610.101 107.786 611.385 108.215 612.567 108.954C613.585 109.658 614.483 110.62 615.207 111.783C615.932 112.946 616.468 114.287 616.785 115.725C617.102 117.162 617.192 118.668 617.051 120.152C616.91 121.636 616.539 123.068 615.962 124.362C613.31 130.828 606.626 133.854 602.277 129.59C597.927 125.325 595.593 127.113 592.728 130.002C587.742 135.23 583.18 141.008 581.376 149.675L575.011 179.802C571.616 195.623 563.659 205.94 552.201 211.856C540.743 217.771 527.27 223.824 514.751 229.877L509.977 232.079C510.06 232.668 510.096 233.268 510.083 233.867H510.189L519.843 235.105L521.965 235.38H523.981C530.665 235.655 537.348 235.655 544.032 235.793C549.806 236.102 555.587 235.408 561.219 233.729C572.386 230.282 582.618 222.959 590.819 212.544C592.516 210.343 594.426 208.279 596.229 206.216C601.852 200.025 607.687 194.11 613.31 187.919C614.795 186.268 615.856 183.654 617.554 182.141C619.257 180.714 621.256 179.994 623.283 180.077C623.813 180.077 625.299 184.617 624.768 185.443C624.238 186.268 621.479 188.469 619.676 189.432C617.872 190.395 614.477 189.982 612.78 191.771C605.671 199.062 598.563 206.491 591.986 214.607L591.349 215.158C578.088 231.666 562.492 238.819 544.457 238.132C534.696 237.856 525.042 237.169 515.281 236.618L511.144 236.343L508.385 236.618C508.067 237.169 507.749 237.581 507.749 237.856V238.682C508.491 254.227 502.338 264.682 492.684 272.661C488.228 276.513 483.984 280.778 479.528 284.492C476.664 286.969 475.709 289.995 475.603 294.26C475.603 301.413 475.815 308.704 474.542 315.583C473.269 322.461 470.192 331.403 467.646 339.933C470.723 338.97 474.224 338.419 477.407 336.769C481.721 334.715 485.907 332.231 489.925 329.34C497.713 324.003 504.659 316.816 510.401 308.154C517.085 298.112 525.89 292.334 534.696 286.831L544.138 280.915C558.461 271.423 574.268 268.672 589.546 263.719L591.243 263.169C600.338 260.292 609.06 255.704 617.129 249.55C619.172 248.029 621.155 246.376 623.071 244.597C623.778 243.974 624.42 243.234 624.98 242.396C625.628 241.581 626.134 240.596 626.465 239.507C626.923 237.685 626.997 235.738 626.678 233.867C625.192 222.724 628.8 213.507 635.802 207.316C640.682 202.914 645.986 200.575 651.397 201.126C654.328 201.427 657.18 202.504 659.778 204.29C669.327 210.893 672.085 227.401 666.144 240.195Z" stroke="#64C9D6" stroke-width="2" stroke-miterlimit="10"/>
<path id="Vector_53" d="M291.215 275.688C292.146 276.753 293.283 277.466 294.504 277.751C303.416 281.053 312.434 284.217 321.027 288.757C326.65 291.783 331.53 297.011 336.729 301.413C324.104 278.714 312.222 255.328 294.716 237.169L292.701 235.243C292.254 237.363 291.935 239.524 291.746 241.708C291.215 251.476 291.003 261.381 290.367 271.148C290.182 272.747 290.486 274.376 291.215 275.688Z" stroke="#64C9D6" stroke-width="2" stroke-miterlimit="10"/>
<path id="Vector_54" d="M346.489 319.435C346.163 318.605 345.772 317.822 345.322 317.096C340.76 308.567 334.925 303.339 329.514 297.699C318.481 286.143 305.113 282.704 291.109 278.852H290.579C290.449 281.97 290.484 285.095 290.685 288.206C291.135 296.332 293.382 304.118 297.156 310.63C299.596 314.609 302.743 317.763 306.327 319.824C309.911 321.884 313.826 322.789 317.738 322.461C319.597 322.286 321.442 321.918 323.255 321.361C328.772 319.572 334.713 319.985 340.442 319.572L346.489 319.435Z" stroke="#64C9D6" stroke-width="2" stroke-miterlimit="10"/>
<path id="Vector_55" d="M505.839 239.37C505.771 238.741 505.592 238.14 505.316 237.615C505.04 237.09 504.674 236.655 504.247 236.343C503.653 235.916 502.996 235.659 502.319 235.588C501.642 235.516 500.961 235.633 500.322 235.931C494.063 237.581 487.909 239.37 481.756 241.571C480.135 242.38 478.809 243.952 478.043 245.973V245.973C474.011 258.079 475.178 270.736 476.345 284.905C485.257 276.101 494.911 270.323 501.277 259.592C501.688 259.058 502.045 258.457 502.338 257.804C504.566 253.677 505.096 247.762 505.733 242.534C505.923 241.498 505.959 240.424 505.839 239.37V239.37Z" stroke="#64C9D6" stroke-width="2" stroke-miterlimit="10"/>
<path id="Vector_56" d="M392.745 239.37L393.064 258.079L393.382 276.926L393.7 292.196C393.806 295.498 394.018 298.662 394.231 301.826H395.185C395.292 301 395.292 300.175 395.398 299.35C395.504 298.524 395.716 295.085 395.822 292.884V292.196C396.14 287.656 396.246 282.979 396.777 278.439C396.928 276.542 397.607 274.781 398.686 273.487C401.339 271.148 404.097 268.534 407.174 267.434C417.04 263.582 424.785 256.153 431.257 245.835C433.254 242.962 435.58 240.503 438.153 238.544C443.351 234.004 448.762 230.015 453.96 225.475C463.296 217.496 474.966 213.231 480.483 198.649C480.756 198.248 481.106 197.947 481.497 197.778C481.888 197.609 482.307 197.577 482.711 197.686C483.111 197.886 483.471 198.201 483.765 198.605C484.059 199.01 484.279 199.495 484.409 200.025C484.451 201.289 484.108 202.525 483.454 203.464C477.831 208.692 472.208 213.919 466.373 218.734C457.78 225.75 448.974 232.629 440.274 239.507C439.219 240.605 438.226 241.8 437.304 243.084L475.073 225.2C473.948 227.285 472.355 228.87 470.511 229.74C465.312 232.354 459.901 234.692 454.703 237.444C449.504 240.195 441.548 244.322 435.182 248.449C432.53 250.1 430.408 253.402 428.074 256.015L428.817 257.391C435.925 254.915 443.033 252.714 450.035 249.825C461.175 245.285 472.208 240.057 483.348 235.38C486.958 233.789 490.695 232.728 494.487 232.216C499.58 231.528 502.444 230.978 503.505 229.189C504.566 227.401 503.717 223.824 501.171 217.359C498.413 210.343 495.442 203.327 492.365 196.586L483.454 176.501C482.997 175.875 482.406 175.443 481.756 175.262C481.138 175.013 480.482 174.966 479.847 175.125C469.662 178.014 459.477 181.591 449.292 184.204C434.545 188.056 420.541 194.247 407.916 204.565C398.368 212.268 392.321 223.549 392.745 239.37Z" stroke="#64C9D6" stroke-width="2" stroke-miterlimit="10"/>
<path id="Vector_57" d="M361.554 141.421C360.646 143.522 359.9 145.734 359.326 148.024C357.841 153.389 358.69 157.791 361.448 162.469C367.283 172.649 372.588 183.242 378.317 193.559C379.211 195.435 380.552 196.884 382.136 197.686C387.122 199.75 387.865 201.951 386.592 208.83C386.061 211.581 386.91 214.745 387.122 217.772H388.82C389.001 216.912 389.143 216.039 389.244 215.158C389.138 211.581 389.138 208.142 389.032 204.702C389.032 200.713 388.926 196.723 388.82 192.734C388.714 188.744 388.714 187.094 388.714 184.205V183.517C388.714 182.004 388.608 180.353 388.608 178.702V176.363C388.395 166.733 387.122 156.691 388.395 147.474C389.668 138.257 387.547 127.801 383.303 118.447C374.816 123.537 367.389 129.452 362.721 139.082L361.554 141.421Z" stroke="#64C9D6" stroke-width="2" stroke-miterlimit="10"/>
<path id="Vector_58" d="M393.488 112.394C385.637 114.32 385.849 115.695 390.836 128.352L393.488 112.394Z" stroke="#64C9D6" stroke-width="2" stroke-miterlimit="10"/>
<path id="Vector_59" d="M337.684 133.717C337.323 135.271 337.437 136.946 338.002 138.394C338.569 139.331 339.295 140.084 340.124 140.595C344.368 143.622 348.399 147.336 352.537 150.638C353.455 151.407 354.412 152.096 355.401 152.701C362.509 131.791 364.843 127.939 375.24 119.96C383.091 113.907 383.091 113.907 379.484 102.764C376.532 93.8357 372.404 85.6426 367.283 78.5518C362.615 83.9169 358.372 89.007 353.916 93.8219C349.46 98.6368 345.853 101.663 342.352 106.203C340.985 108.27 340.102 110.799 339.806 113.494L339.487 115.42C338.639 121.473 338.532 127.801 337.684 133.717Z" stroke="#64C9D6" stroke-width="2" stroke-miterlimit="10"/>
<path id="Vector_60" d="M361.767 235.38C363.57 233.729 365.055 231.528 366.753 229.74C372.8 223.412 380.12 218.046 377.044 205.252C376.99 204.474 376.99 203.692 377.044 202.914L377.68 202.639C377.044 199.887 376.832 196.861 375.665 194.66C374.498 192.459 372.164 187.644 370.466 184.067C367.222 177.282 363.568 170.842 359.539 164.807C353.916 156.828 346.383 150.775 339.7 143.897C339.308 143.425 338.825 143.1 338.302 142.954C337.779 142.809 337.236 142.85 336.729 143.071C336.131 143.383 335.589 143.851 335.138 144.447L334.183 145.823C329.833 152.426 325.165 158.479 320.497 164.67C318.481 167.283 315.935 169.485 314.025 172.374C310.206 178.151 309.888 180.49 312.434 185.993C312.676 186.663 312.96 187.308 313.283 187.919C318.604 199.084 325.918 208.426 334.607 215.157C342.882 221.486 350.415 229.327 358.372 236.206C359.114 236.893 360.918 236.206 361.767 235.38Z" stroke="#64C9D6" stroke-width="2" stroke-miterlimit="10"/>
<path id="Vector_61" d="M390.411 309.53C390.517 303.889 390.836 298.387 391.048 292.746C391.26 287.106 391.26 285.043 391.26 281.191C391.26 277.339 390.942 270.323 390.729 264.82C390.517 259.317 390.093 251.751 390.093 245.285C390.073 240.253 389.501 235.251 388.395 230.428C387.358 225.77 385.972 221.254 384.258 216.946C383.771 215.831 383.163 214.812 382.454 213.919C377.256 222.174 372.482 230.015 367.389 237.581C360.705 247.349 359.432 266.608 364.843 277.339C366.753 281.328 368.981 285.18 370.042 289.582C374.497 308.429 382.773 325.488 384.788 345.435C384.788 345.986 385.319 346.673 385.531 347.224H387.016C387.016 344.472 387.441 341.583 387.016 338.97C385.531 330.578 383.303 322.186 382.242 313.657C380.545 300.725 380.014 287.519 382.348 274.45C383.94 293.709 384.788 312.969 390.411 331.266C390.85 328.879 391.028 326.425 390.942 323.975C390.729 319.16 390.305 314.345 390.411 309.53Z" stroke="#64C9D6" stroke-width="2" stroke-miterlimit="10"/>
<path id="Vector_62" d="M408.765 341.859L409.401 338.144C411.417 324.525 413.963 311.181 419.268 298.937C417.995 304.99 416.722 311.043 415.343 317.096H415.767C416.404 315.446 417.146 313.795 417.889 312.144H417.995L418.525 312.419L415.024 329.478C417.677 323.425 419.162 316.821 421.602 310.906C427.755 295.636 434.333 280.503 440.911 265.37C441.179 264.861 441.524 264.427 441.925 264.096C442.326 263.765 442.775 263.543 443.245 263.444C443.775 263.307 444.942 264.82 444.942 265.508C444.832 266.769 444.381 267.939 443.669 268.81C442.078 271.011 439.956 272.662 438.577 275.138C430.08 290.178 424.248 307.464 421.496 325.763C421.172 329.14 421.03 332.541 421.072 335.943L424.467 331.816C424.148 334.568 423.83 336.356 423.618 338.282C428.074 332.229 431.893 325.626 436.667 320.673C445.685 311.456 454.703 302.239 464.463 294.673C469.874 290.546 473.799 286.556 474.33 279.678C474.413 277.074 474.162 274.471 473.587 271.974C472.632 267.572 473.375 262.344 473.799 257.529C474.12 254.233 474.616 250.969 475.285 247.762C475.406 247.366 475.477 246.948 475.497 246.524C475.807 245.355 476.055 244.16 476.239 242.947L462.341 247.762C443.669 253.54 425.315 260.556 408.553 273.074C405.052 275.688 401.445 280.778 400.278 285.731C396.989 298.937 402.293 311.594 401.763 324.938L403.46 325.213C404.733 321.361 405.9 317.509 407.174 313.795C408.447 310.08 410.25 304.027 411.842 299.212L413.009 299.9C411.099 306.366 409.295 312.969 407.386 319.435L405.158 326.864C402.081 336.769 402.612 346.536 404.627 356.441C404.946 357.954 405.37 359.605 405.794 361.256C406.855 354.928 407.81 348.325 408.765 341.859Z" stroke="#64C9D6" stroke-width="2" stroke-miterlimit="10"/>
<path id="Vector_63" d="M416.616 356.716C416.192 359.055 415.767 361.531 415.237 364.145H411.417C412.506 352.624 414.643 341.31 417.783 330.44C418.95 336.081 418.526 344.885 416.616 356.716Z" stroke="#64C9D6" stroke-width="2" stroke-miterlimit="10"/>
<path id="Vector_64" d="M455.976 342.822C458.84 341.721 462.023 340.758 463.933 338.282C468.287 332.837 471.313 325.853 472.632 318.197C473.026 315.93 473.31 313.632 473.481 311.318V311.318C473.997 304.37 474.139 297.382 473.905 290.408C472.58 291.092 471.303 291.92 470.086 292.884C460.007 302.101 449.716 311.181 439.85 320.948H439.744C436.771 323.886 434.034 327.204 431.575 330.853C428.309 335.614 425.625 340.996 423.618 346.811C422.489 350.259 421.532 353.797 420.753 357.404L422.026 358.092C424.891 355.891 427.649 353.002 430.832 351.764C439.107 348.324 447.7 345.848 455.976 342.822Z" stroke="#64C9D6" stroke-width="2" stroke-miterlimit="10"/>
<path id="Vector_65" d="M647.895 257.529C659.672 257.529 669.219 245.149 669.219 229.877C669.219 214.606 659.672 202.226 647.895 202.226C636.118 202.226 626.57 214.606 626.57 229.877C626.57 245.149 636.118 257.529 647.895 257.529Z" fill="#64C9D6"/>
<path id="Vector_66" d="M395.504 65.3452C407.281 65.3452 416.828 52.9653 416.828 37.6938C416.828 22.4224 407.281 10.0425 395.504 10.0425C383.726 10.0425 374.179 22.4224 374.179 37.6938C374.179 52.9653 383.726 65.3452 395.504 65.3452Z" fill="#64C9D6"/>
<path id="Vector_67" d="M220.877 103.864C226.267 103.864 230.637 98.198 230.637 91.2081C230.637 84.2182 226.267 78.5518 220.877 78.5518C215.486 78.5518 211.116 84.2182 211.116 91.2081C211.116 98.198 215.486 103.864 220.877 103.864Z" fill="#64C9D6"/>
</g>
</g>
</g>
</svg>
